#!OML:ASF H:\Male1\Project 1\Capture day 1\Session 1\Male1.ASF
:FULLY-SPECIFIED
:DEGREES
554
root 5.14301 15.5193 -0.117521 331.696 -78.8671 -332.439
lowerback 15.4111 2.71689 -2.67519
upperback 6.25607 2.71876 -3.78394
thorax -1.93479 1.21422 -2.91237
lowerneck -7.52655 0.0611868 3.27704
upperneck 3.862 -0.278027 0.424447
head 2.52889 -0.0748767 -0.444015
rclavicle 3.33958e-014 7.95139e-016
rhumerus -35.9127 5.13417 -88.7588
rradius 35.8342
rwrist -18.4592
rhand -20.4972 0.438006
rfingers 7.12502
rthumb 5.85982 -29.461
lclavicle 3.33958e-014 7.95139e-016
lhumerus -47.5261 -8.35687 77.2304
lradius 86.9147
lwrist 31.0916
lhand -34.0599 19.8658
lfingers 7.12502
lthumb -7.23738 49.7221
rfemur -10.2456 -9.43623 24.6642
rtibia 30.1398
rfoot -19.7149 -20.1051
rtoes -9.3827
lfemur -36.8423 29.869 -0.183237
ltibia 135.753
lfoot -0.576283 -29.6597
ltoes 0.419056
555
root 4.99054 15.5106 -0.131719 333.262 -79.3299 -334.228
lowerback 15.3918 2.72809 -2.59526
upperback 6.40962 2.75816 -3.51501
thorax -1.77195 1.23008 -2.67521
lowerneck -7.14711 0.100282 3.70465
upperneck 3.71883 -0.265757 0.666181
head 2.41115 -0.0585926 -0.438155
rclavicle 3.18055e-015 -1.43125e-014
rhumerus -35.2164 3.62428 -88.5861
rradius 36.2744
rwrist -18.9582
rhand -21.6513 0.844932
rfingers 7.12502
rthumb 4.7455 -29.0819
lclavicle 3.18055e-015 -1.43125e-014
lhumerus -48.5815 -7.24804 77.1666
lradius 84.6123
lwrist 32.0792
lhand -34.4781 21.0547
lfingers 7.12502
lthumb -7.64107 50.8967
rfemur -10.1909 -10.3861 25.0338
rtibia 31.5872
rfoot -19.2009 -19.0077
rtoes -11.5452
lfemur -37.8815 29.4886 -1.65565
ltibia 135.953
lfoot -0.143524 -25.0768
ltoes 0.707228
556
root 4.83324 15.5093 -0.141929 335.552 -79.9006 -336.689
lowerback 15.2174 2.81108 -2.35808
upperback 6.51193 2.92416 -3.2439
thorax -1.57067 1.31372 -2.53917
lowerneck -6.86512 0.039942 3.99238
upperneck 3.75842 -0.383477 1.02063
head 2.3705 -0.103409 -0.378407
rclavicle -6.26172e-014 9.54166e-015
rhumerus -35.0547 2.65704 -88.6683
rradius 37.2741
rwrist -19.98
rhand -22.3856 1.45472
rfingers 7.12502
rthumb 4.03642 -28.4868
lclavicle -6.26172e-014 9.54166e-015
lhumerus -49.4112 -6.70402 77.1488
lradius 82.0957
lwrist 32.5002
lhand -34.2443 21.8502
lfingers 7.12502
lthumb -7.4154 51.7003
rfemur -9.68964 -11.0269 25.5528
rtibia 32.2198
rfoot -18.5576 -18.108
rtoes -13.3091
lfemur -39.3794 28.2089 -3.96419
ltibia 135.6
lfoot 0.370191 -19.9925
ltoes 1.62902
557
root 4.67348 15.5074 -0.147833 338.643 -80.5956 -339.896
lowerback 14.8855 2.95417 -2.00001
upperback 6.58019 3.19387 -2.95855
thorax -1.31374 1.45321 -2.46477
lowerneck -6.6715 -0.0771928 4.19421
upperneck 3.88868 -0.573925 1.36876
head 2.37555 -0.184108 -0.309268
rclavicle 7.7526e-015 1.27222e-014
rhumerus -35.1747 2.13837 -88.8792
rradius 38.4575
rwrist -21.147
rhand -22.6046 2.1039
rfingers 7.12502
rthumb 3.8249 -27.8415
lclavicle 7.7526e-015 1.27222e-014
lhumerus -50.066 -6.49412 77.1809
lradius 79.4564
lwrist 31.9584
lhand -33.3778 21.9632
lfingers 7.12502
lthumb -6.57893 51.8411
rfemur -8.89177 -11.3188 26.2358
rtibia 32.2658
rfoot -17.8723 -17.4124
rtoes -14.7767
lfemur -41.1553 26.0667 -6.75522
ltibia 134.638
lfoot 0.574527 -14.8839
ltoes 2.5954
558
root 4.51118 15.5065 -0.150525 342.239 -81.342 -343.61
lowerback 14.4739 3.1255 -1.62606
upperback 6.64002 3.50189 -2.67995
thorax -1.02001 1.61333 -2.40571
lowerneck -6.52926 -0.201292 4.33655
upperneck 4.03033 -0.768995 1.67809
head 2.39424 -0.268538 -0.24253
rclavicle -5.08889e-014 -6.36111e-015
rhumerus -35.3299 1.957 -89.1581
rradius 39.4644
rwrist -21.9625
rhand -22.4827 2.62577
rfingers 7.12502
rthumb 3.9427 -27.3175
lclavicle -5.08889e-014 -6.36111e-015
lhumerus -50.6081 -6.43921 77.2326
lradius 76.731
lwrist 30.368
lhand -31.9937 21.005
lfingers 7.12502
lthumb -5.24261 50.9201
rfemur -7.87274 -11.3974 26.9517
rtibia 31.9444
rfoot -17.1947 -16.833
rtoes -16.3118
lfemur -42.8758 23.0797 -9.70928
ltibia 132.933
lfoot 0.351691 -10.1335
ltoes 3.23194
559
root 4.34703 15.5059 -0.150802 345.885 -82.0514 -347.417
lowerback 14.057 3.29491 -1.33965
upperback 6.70471 3.78946 -2.42715
thorax -0.721528 1.76193 -2.3179
lowerneck -6.40027 -0.311911 4.41406
upperneck 4.13998 -0.938555 1.95992
head 2.40553 -0.342563 -0.172236
rclavicle 6.95746e-015 2.34566e-014
rhumerus -35.4141 2.02403 -89.457
rradius 40.1482
rwrist -22.2284
rhand -22.1978 2.99169
rfingers 7.12502
rthumb 4.21773 -26.9463
lclavicle 6.95746e-015 2.34566e-014
lhumerus -51.092 -6.43361 77.2995
lradius 73.9808
lwrist 27.9433
lhand -30.5694 19.1422
lfingers 7.12502
lthumb -3.86734 49.0868
rfemur -6.69535 -11.335 27.579
rtibia 31.4569
rfoot -16.6261 -16.3457
rtoes -18.0548
lfemur -44.2438 19.4663 -12.4728
ltibia 130.437
lfoot -0.274675 -6.18423
ltoes 2.86012
560
root 4.18051 15.5093 -0.149483 349.173 -82.6792 -350.919
lowerback 13.6852 3.44125 -1.17985
upperback 6.77794 4.02281 -2.21522
thorax -0.444794 1.88057 -2.19399
lowerneck -6.25369 -0.401121 4.42483
upperneck 4.17639 -1.06993 2.23648
head 2.39018 -0.400652 -0.0902964
rclavicle 0 -1.98785e-015
rhumerus -35.3848 2.25107 -89.7484
rradius 40.473
rwrist -21.8872
rhand -21.935 3.20416
rfingers 7.12502
rthumb 4.4715 -26.7286
lclavicle 0 -1.98785e-015
lhumerus -51.5372 -6.4546 77.4001
lradius 71.2676
lwrist 25.1072
lhand -29.5778 16.823
lfingers 7.12502
lthumb -2.90977 46.7829
rfemur -5.45112 -11.1405 28.0462
rtibia 30.9419
rfoot -16.2197 -15.96
rtoes -19.8924
lfemur -45.0675 15.6084 -14.7691
ltibia 127.131
lfoot -1.17637 -3.37497
ltoes 1.16133
561
root 4.01229 15.515 -0.145836 352.068 -83.2265 -354.063
lowerback 13.3679 3.55701 -1.09904
upperback 6.8558 4.20012 -2.04514
thorax -0.19637 1.96922 -2.06334
lowerneck -6.11082 -0.478396 4.35806
upperneck 4.15701 -1.17764 2.52847
head 2.35807 -0.449245 0.010858
rclavicle -4.9895e-014 2.78299e-015
rhumerus -35.2552 2.5533 -90.0139
rradius 40.4974
rwrist -21.0573
rhand -21.8306 3.32541
rfingers 7.12502
rthumb 4.5723 -26.6052
lclavicle -4.9895e-014 2.78299e-015
lhumerus -51.9271 -6.5125 77.5599
lradius 68.6263
lwrist 22.3046
lhand -29.1924 14.6394
lfingers 7.12502
lthumb -2.53748 44.6041
rfemur -4.22188 -10.839 28.3758
rtibia 30.4877
rfoot -15.9618 -15.6904
rtoes -21.8981
lfemur -45.3358 11.834 -16.4866
ltibia 123.086
lfoot -2.27719 -1.77552
ltoes -1.70893
562
root 3.84367 15.5159 -0.138375 354.93 -83.7136 -357.178
lowerback 13.0877 3.64501 -1.01302
upperback 6.93078 4.33789 -1.90359
thorax 0.030547 2.03841 -1.96133
lowerneck -5.99944 -0.548099 4.22681
upperneck 4.10535 -1.27017 2.82203
head 2.32212 -0.491953 0.123891
rclavicle 2.88238e-014 -5.96354e-015
rhumerus -35.0632 2.87313 -90.2388
rradius 40.3138
rwrist -20.0113
rhand -21.9363 3.46958
rfingers 7.12502
rthumb 4.47032 -26.4632
lclavicle 2.88238e-014 -5.96354e-015
lhumerus -52.2245 -6.61312 77.7918
lradius 66.0449
lwrist 19.8845
lhand -29.2117 12.9909
lfingers 7.12502
lthumb -2.55618 42.9553
rfemur -3.02833 -10.4781 28.6479
rtibia 30.1278
rfoot -15.8843 -15.4981
rtoes -23.7904
lfemur -45.2312 8.32829 -17.6772
ltibia 118.455
lfoot -3.47062 -1.1649
ltoes -5.23416
563
root 3.67377 15.5115 -0.127082 358.112 -84.1576 -360.598
lowerback 12.8262 3.71439 -0.865441
upperback 6.99712 4.45598 -1.78334
thorax 0.244322 2.09996 -1.91374
lowerneck -5.91912 -0.617175 4.06315
upperneck 4.02677 -1.35852 3.09832
head 2.28374 -0.534071 0.236855
rclavicle -1.70955e-014 -7.55382e-015
rhumerus -34.8437 3.17023 -90.4195
rradius 40.0091
rwrist -19.0357
rhand -22.1937 3.64339
rfingers 7.12502
rthumb 4.22177 -26.2945
lclavicle -1.70955e-014 -7.55382e-015
lhumerus -52.3893 -6.76434 78.0865
lradius 63.4892
lwrist 18.05
lhand -29.2423 12.0038
lfingers 7.12502
lthumb -2.58571 41.9678
rfemur -1.88153 -10.0691 28.9212
rtibia 29.8338
rfoot -15.9724 -15.3948
rtoes -25.3681
lfemur -44.8518 5.16489 -18.4281
ltibia 113.305
lfoot -4.66659 -1.18774
ltoes -8.59551
564
root 3.50151 15.5012 -0.112514 361.654 -84.5631 -364.337
lowerback 12.5626 3.7744 -0.657329
upperback 7.05137 4.56699 -1.68704
thorax 0.453559 2.16067 -1.9231
lowerneck -5.88495 -0.691073 3.90276
upperneck 3.93773 -1.45338 3.34008
head 2.25077 -0.580196 0.337726
rclavicle 5.52621e-014 -1.39149e-014
rhumerus -34.6177 3.43334 -90.5684
rradius 39.6472
rwrist -18.3206
rhand -22.5382 3.80323
rfingers 7.12502
rthumb 3.88906 -26.141
lclavicle 5.52621e-014 -1.39149e-014
lhumerus -52.3989 -6.94847 78.4185
lradius 60.9466
lwrist 16.8414
lhand -28.9334 11.6584
lfingers 7.12502
lthumb -2.28736 41.6259
rfemur -0.762785 -9.61269 29.2078
rtibia 29.5316
rfoot -16.2002 -15.3818
rtoes -26.5587
lfemur -44.2442 2.32543 -18.857
ltibia 107.662
lfoot -5.82732 -1.53402
ltoes -11.6065
565
root 3.32578 15.4867 -0.0962163 365.492 -84.9425 -368.309
lowerback 12.2768 3.82918 -0.415838
upperback 7.08838 4.67388 -1.61847
thorax 0.662264 2.22167 -1.97739
lowerneck -5.91224 -0.764822 3.7773
upperneck 3.85859 -1.55119 3.52659
head 2.23217 -0.62784 0.414663
rclavicle -4.73108e-014 2.94201e-014
rhumerus -34.3786 3.65264 -90.6846
rradius 39.2805
rwrist -18.0292
rhand -22.7971 3.89191
rfingers 7.12502
rthumb 3.63909 -26.0568
lclavicle -4.73108e-014 2.94201e-014
lhumerus -52.2522 -7.10894 78.7446
lradius 58.419
lwrist 16.165
lhand -28.0832 11.8142
lfingers 7.12502
lthumb -1.46625 41.7889
rfemur 0.348435 -9.07403 29.5157
rtibia 29.1469
rfoot -16.5119 -15.4922
rtoes -27.2413
lfemur -43.4595 -0.184438 -19.0777
ltibia 101.544
lfoot -6.89687 -1.90074
ltoes -13.9104
566
root 3.14595 15.4707 -0.079816 369.482 -85.3194 -372.363
lowerback 11.971 3.88086 -0.181166
upperback 7.10212 4.77515 -1.58235
thorax 0.860428 2.28112 -2.05929
lowerneck -5.99532 -0.827817 3.69376
upperneck 3.79833 -1.63901 3.66555
head 2.22964 -0.67004 0.469455
rclavicle 3.35946e-014 -7.95139e-015
rhumerus -34.1213 3.83907 -90.7773
rradius 38.9346
rwrist -18.0802
rhand -22.8758 3.81597
rfingers 7.12502
rthumb 3.56299 -26.134
lclavicle 3.35946e-014 -7.95139e-015
lhumerus -51.968 -7.18506 79.0169
lradius 55.9101
lwrist 15.8061
lhand -26.6262 12.3175
lfingers 7.12502
lthumb -0.0590799 42.2973
rfemur 1.49058 -8.41304 29.841
rtibia 28.6026
rfoot -16.8044 -15.7826
rtoes -27.2204
lfemur -42.4857 -2.36841 -19.1716
ltibia 94.9488
lfoot -7.92683 -1.98018
ltoes -15.7731
567
root 2.96155 15.4552 -0.0641109 373.564 -85.7176 -376.439
lowerback 11.6568 3.92616 0.015107
upperback 7.08038 4.86368 -1.5813
thorax 1.02633 2.33441 -2.15468
lowerneck -6.108 -0.868396 3.65302
upperneck 3.75873 -1.70073 3.76578
head 2.23878 -0.698775 0.505474
rclavicle -1.35174e-014 1.47101e-014
rhumerus -33.8606 4.01227 -90.8605
rradius 38.623
rwrist -18.3613
rhand -22.7567 3.58647
rfingers 7.12502
rthumb 3.67807 -26.3615
lclavicle -1.35174e-014 1.47101e-014
lhumerus -51.5995 -7.12873 79.2075
lradius 53.4373
lwrist 15.5015
lhand -24.6695 13.0267
lfingers 7.12502
lthumb 1.83072 42.9986
rfemur 2.70373 -7.63474 30.1688
rtibia 27.83
rfoot -17.1054 -16.2189
rtoes -26.7608
lfemur -41.2911 -4.24438 -19.201
ltibia 87.8844
lfoot -8.83575 -1.50372
ltoes -17.2515
568
root 2.77282 15.4415 -0.0494274 378.034 -86.1529 -380.824
lowerback 11.3366 3.95912 0.164816
upperback 7.00865 4.93201 -1.61353
thorax 1.14204 2.37739 -2.25743
lowerneck -6.22474 -0.876658 3.65276
upperneck 3.74325 -1.72214 3.83144
head 2.25593 -0.707112 0.525087
rclavicle -6.44062e-014 2.18663e-014
rhumerus -33.612 4.18228 -90.9447
rradius 38.3542
rwrist -18.7253
rhand -22.4487 3.23276
rfingers 7.12502
rthumb 3.97552 -26.7099
lclavicle -6.44062e-014 2.18663e-014
lhumerus -51.2052 -6.90933 79.3141
lradius 51.0096
lwrist 15.0327
lhand -22.4597 13.772
lfingers 7.12502
lthumb 3.96482 43.7148
rfemur 3.99722 -6.77549 30.4974
rtibia 26.7963
rfoot -17.3026 -16.8149
rtoes -25.7994
lfemur -39.899 -5.83864 -19.1874
ltibia 80.4093
lfoot -9.63351 -0.394942
ltoes -18.0591
